<svg width="728" height="303" viewBox="0 0 728 303" fill="none" xmlns="http://www.w3.org/2000/svg">
<path d="M728 0H0V303H728V0Z" fill="#000000"/>
<path d="M260.562 177.102H284.374V203.008H260.562V230.582H219.309V203.008H139.077V180.132L212.18 72.4155H251.31C252.545 72.2826 253.793 72.4168 254.971 72.809C256.149 73.2011 257.228 73.8419 258.135 74.6879C259.616 76.4685 260.374 78.7394 260.259 81.0511L260.562 177.102ZM219.309 110.139L176.235 177.102H219.309V110.139Z" fill="white"/>
<path d="M295.143 151.501C294.912 138.927 296.444 126.382 299.693 114.232C301.872 104.583 306.058 95.4984 311.978 87.5683C317.366 80.8883 324.357 75.677 332.301 72.4183C349.825 65.6854 369.226 65.6854 386.749 72.4183C394.762 75.6313 401.813 80.8483 407.224 87.5683C413.249 95.3249 417.588 104.251 419.964 113.778C426.029 138.306 426.029 163.939 419.964 188.467C417.556 197.936 413.219 206.807 407.224 214.525C401.813 221.245 394.762 226.462 386.749 229.675C369.226 236.408 349.825 236.408 332.301 229.675C324.357 226.417 317.366 221.205 311.978 214.525C305.983 206.807 301.646 197.936 299.238 188.467C296.176 176.392 294.798 163.953 295.143 151.501ZM337.458 151.501C336.626 166.576 338.58 181.674 343.221 196.042C344.225 199.733 346.387 203.005 349.39 205.377C352.393 207.749 356.078 209.097 359.904 209.223C363.758 209.068 367.466 207.714 370.512 205.351C373.558 202.988 375.788 199.734 376.891 196.042C384.578 166.845 384.578 136.158 376.891 106.96C375.794 103.252 373.57 99.9771 370.526 97.5884C367.483 95.1996 363.771 93.8155 359.904 93.6282C356.065 93.7868 352.376 95.1655 349.376 97.5634C346.375 99.9613 344.219 103.253 343.221 106.96C338.58 121.328 336.626 136.427 337.458 151.501Z" fill="white"/>
<path d="M565.262 177.103H589.074V203.009H565.262V230.583H524.312V203.009H443.929V180.133L517.184 72.4165H556.617C557.851 72.2935 559.097 72.4325 560.273 72.8241C561.449 73.2157 562.529 73.8511 563.442 74.6889C564.882 76.4844 565.586 78.7584 565.414 81.0521L565.262 177.103ZM524.312 110.14L481.087 177.103H524.312V110.14Z" fill="white"/>
</svg>
